<svg display="none" xmlns="http://www.w3.org/2000/svg">
        <symbol id="twitter" viewBox="0 0 512 512">
            <g>
                <path d="M512,97.248c-19.04,8.352-39.328,13.888-60.48,16.576c21.76-12.992,38.368-33.408,46.176-58.016
                    c-20.288,12.096-42.688,20.64-66.56,25.408C411.872,60.704,384.416,48,354.464,48c-58.112,0-104.896,47.168-104.896,104.992
                    c0,8.32,0.704,16.32,2.432,23.936c-87.264-4.256-164.48-46.08-216.352-109.792c-9.056,15.712-14.368,33.696-14.368,53.056
                    c0,36.352,18.72,68.576,46.624,87.232c-16.864-0.32-33.408-5.216-47.424-12.928c0,0.32,0,0.736,0,1.152
                    c0,51.008,36.384,93.376,84.096,103.136c-8.544,2.336-17.856,3.456-27.52,3.456c-6.72,0-13.504-0.384-19.872-1.792
                    c13.6,41.568,52.192,72.128,98.08,73.12c-35.712,27.936-81.056,44.768-130.144,44.768c-8.608,0-16.864-0.384-25.12-1.44
                    C46.496,446.88,101.6,464,161.024,464c193.152,0,298.752-160,298.752-298.688c0-4.64-0.16-9.12-0.384-13.568
                    C480.224,136.96,497.728,118.496,512,97.248z"/>
            </g>
        </symbol>
        <symbol id="facebook" viewBox="-21 -21 682.66669 682.66669">
          <g>
            <path d="m604.671875 0h-569.375c-19.496094.0117188-35.30078125 15.824219-35.296875 35.328125v569.375c.0117188
             19.496094 15.824219 35.300781 35.328125 35.296875h306.546875v-247.5h-83.125v-96.875h83.125v-71.292969c0-82.675781 50.472656-127.675781
              124.222656-127.675781 35.324219 0 65.679688 2.632812 74.527344 3.808594v86.410156h-50.855469c-40.125 0-47.894531 19.066406-47.894531
               47.050781v61.699219h95.9375l-12.5 96.875h-83.4375v247.5h162.796875c19.507813.003906 35.324219-15.804688 35.328125-35.3125 0-.003906
                0-.007812 0-.015625v-569.375c-.007812-19.496094-15.824219-35.30078125-35.328125-35.296875zm0 0"/>
          </g>
        </symbol>
        <symbol id="instagram" viewBox="0 0 512 512">
          <g>
	<g>
		<path d="M352,0H160C71.648,0,0,71.648,0,160v192c0,88.352,71.648,160,160,160h192c88.352,0,160-71.648,160-160V160
			C512,71.648,440.352,0,352,0z M464,352c0,61.76-50.24,112-112,112H160c-61.76,0-112-50.24-112-112V160C48,98.24,98.24,48,160,48
			h192c61.76,0,112,50.24,112,112V352z"/>
	</g>
</g>
<g>
	<g>
		<path d="M256,128c-70.688,0-128,57.312-128,128s57.312,128,128,128s128-57.312,128-128S326.688,128,256,128z M256,336
			c-44.096,0-80-35.904-80-80c0-44.128,35.904-80,80-80s80,35.872,80,80C336,300.096,300.096,336,256,336z"/>
	</g>
</g>
<g>
	<g>
		<circle cx="393.6" cy="118.4" r="17.056"/>
	</g>
</g>
        </symbol>
        <symbol id="google" viewBox="0 0 512 512">
            <g>
              <path d="m512 256c0-16.084-1.509-32.183-4.497-47.813-1.348-7.075-7.544-12.188-14.736-12.188h-235.767c-8.291 0-15 6.709-15 15v90c0 8.291 6.709 15 15 15h120.967c-7.537 15.258-17.924 28.497-30.121 39.635l84.78 84.78c48.781-46.475 79.374-111.875 79.374-184.414z"/><path d="m256 120c29.429 0 57.422 9.346 80.947 27.041 5.947 4.468 14.341 3.926 19.614-1.392l64.014-64.014c2.974-2.974 4.57-7.061 4.38-11.265s-2.124-8.13-5.347-10.84c-45.805-38.392-103.916-59.53-163.608-59.53-87.849 0-165.458 44.654-211.337 112.452l88.048 88.048c21.006-47.316 68.268-80.5 123.289-80.5z"/><path d="m256 512c57.263 0 109.993-19.2 152.602-51.187l-86.371-86.371c-19.742 11.116-42.306 17.558-66.231 17.558-55.021 0-102.283-33.184-123.289-80.5l-88.048 88.048c45.879 67.798 123.488 112.452 211.337 112.452z"/><path d="m122.184 277.605c-1.149-7.079-2.184-14.208-2.184-21.605s1.035-14.526 2.184-21.605l-94.124-94.124c-17.808 34.78-28.06 74.045-28.06 115.729s10.252 80.949 28.061 115.728z"/>            
              </g>
        </symbol>

    <symbol id="menu-btn" viewBox="0 0 512 512">
            <g>
                <path d="m464.883 64.267h-417.766c-25.98 0-47.117 21.136-47.117 47.149 0 25.98 21.137 47.117 47.117 47.117h417.766c25.98 0 47.117-21.137 47.117-47.117 0-26.013-21.137-47.149-47.117-47.149z"/><path d="m464.883 208.867h-417.766c-25.98 0-47.117 21.136-47.117 47.149 0 25.98 21.137 47.117 47.117 47.117h417.766c25.98 0 47.117-21.137 47.117-47.117 0-26.013-21.137-47.149-47.117-47.149z"/><path d="m464.883 353.467h-417.766c-25.98 0-47.117 21.137-47.117 47.149 0 25.98 21.137 47.117 47.117 47.117h417.766c25.98 0 47.117-21.137 47.117-47.117 0-26.012-21.137-47.149-47.117-47.149z"/>
            </g>
        </symbol>

        <symbol id="menu-close" viewBox="0 0 492 492">
            <g>
		<path d="M300.188,246L484.14,62.04c5.06-5.064,7.852-11.82,7.86-19.024c0-7.208-2.792-13.972-7.86-19.028L468.02,7.872
			c-5.068-5.076-11.824-7.856-19.036-7.856c-7.2,0-13.956,2.78-19.024,7.856L246.008,191.82L62.048,7.872
			c-5.06-5.076-11.82-7.856-19.028-7.856c-7.2,0-13.96,2.78-19.02,7.856L7.872,23.988c-10.496,10.496-10.496,27.568,0,38.052
			L191.828,246L7.872,429.952c-5.064,5.072-7.852,11.828-7.852,19.032c0,7.204,2.788,13.96,7.852,19.028l16.124,16.116
			c5.06,5.072,11.824,7.856,19.02,7.856c7.208,0,13.968-2.784,19.028-7.856l183.96-183.952l183.952,183.952
			c5.068,5.072,11.824,7.856,19.024,7.856h0.008c7.204,0,13.96-2.784,19.028-7.856l16.12-16.116
			c5.06-5.064,7.852-11.824,7.852-19.028c0-7.204-2.792-13.96-7.852-19.028L300.188,246z"/>
	</g>
        </symbol>
    </svg>
